<svg xmlns="http://www.w3.org/2000/svg" width="1092.269" height="1092.269" viewBox="0 0 1024 1024"><path d="M512 96.8c-207.72.14-379.83 152.53-410.76 351.61l211.27.39C339.5 364.37 418.6 303.25 512 303.2c93.25.11 172.24 61.13 199.33 145.41l211.2.19C891.82 249.6 719.75 97.06 512 96.8zm0 280c-75.11 0-136 60.89-136 136s60.89 136 136 136 136-60.89 136-136-60.89-136-136-136zm-410.53 200C132.18 776 304.25 928.54 512 928.8c207.72-.14 379.83-152.53 410.76-351.61l-211.27-.39C684.5 661.23 605.4 722.35 512 722.4c-93.25-.11-172.24-61.13-199.33-145.41l-211.2-.19z"/></svg>